<svg width="90" height="24" viewBox="0 0 90 24" fill="none" xmlns="http://www.w3.org/2000/svg">
<path d="M30.7437 4.76032V8.9256H21.0248V23.6032H16.8595V11.6175C16.8595 7.83037 19.9295 4.76032 23.7166 4.76032H30.7437Z" fill="black"/>
<path d="M77.7518 19.438H85.6857V4.76032H89.851V15.8889C89.851 20.1494 86.3971 23.6032 82.1367 23.6032H81.3008C77.0404 23.6032 73.5865 20.1494 73.5865 15.8889V4.76032H77.7518V19.438Z" fill="black"/>
<path d="M4.16504 19.4375H13.8838V23.6035H6.85742C3.07033 23.6035 1.13101e-06 20.5332 0 16.7461V0H4.16504V19.4375Z" fill="black"/>
<path d="M0.396729 8.92529L0.396728 4.76002L14.281 4.76002L14.281 8.92529L0.396729 8.92529Z" fill="black"/>
<path d="M54.5453 4.76032H70.6113V12.1121L57.8715 19.1551V19.6184H70.6113V23.6032H54.5453V16.2514L67.2852 9.20848V8.77602H54.5453V4.76032Z" fill="black"/>
<path d="M42.0479 4.36328C44.0823 4.36328 45.8388 4.77873 47.3174 5.60938C48.8078 6.44014 49.9554 7.59755 50.7598 9.08105C51.5641 10.5527 51.9667 12.2674 51.9668 14.2256C51.9668 14.4748 51.961 14.7425 51.9492 15.0273C51.9374 15.312 51.9192 15.5199 51.8955 15.6504H36.6562C36.7638 16.2946 36.938 16.8828 37.1855 17.4131C37.6232 18.3387 38.2627 19.0504 39.1025 19.5488C39.9542 20.0354 40.9896 20.2793 42.208 20.2793C43.0358 20.2793 43.7513 20.2021 44.3545 20.0479C44.9578 19.8936 45.4486 19.6849 45.8271 19.4238C46.2175 19.1509 46.508 18.8603 46.6973 18.5518C46.7821 18.4216 46.8519 18.2913 46.9072 18.1611H51.623C51.4999 18.7708 51.2596 19.3697 50.9023 19.958C50.4529 20.7057 49.8201 21.3887 49.0039 22.0059C48.1877 22.6111 47.1936 23.0979 46.0225 23.4658C44.8632 23.8218 43.5383 24 42.0479 24C40.025 24 38.2563 23.5837 36.7422 22.7529C35.2283 21.9222 34.045 20.7656 33.1934 19.2822C32.3535 17.7987 31.9336 16.1012 31.9336 14.1904C31.9336 12.2321 32.3592 10.5166 33.2109 9.04492C34.0745 7.57331 35.27 6.42827 36.7959 5.60938C38.3218 4.77867 40.0725 4.36328 42.0479 4.36328ZM42.1016 8.03027C40.9659 8.03027 39.9776 8.27414 39.1377 8.76074C38.3099 9.23539 37.6654 9.92351 37.2041 10.8252C36.9781 11.2787 36.8087 11.7777 36.6963 12.3213H47.1387C47.0855 11.6621 46.9105 11.0389 46.6084 10.4521C46.2417 9.72823 45.6856 9.14615 44.9404 8.70703C44.1953 8.25609 43.2488 8.03034 42.1016 8.03027Z" fill="black"/>
</svg>
